<svg width="24" height="24" fill="none" xmlns="http://www.w3.org/2000/svg"><g clip-path="url(#a)" stroke="#225CF3" stroke-width="1.5" stroke-linecap="round" stroke-linejoin="round"><path d="M4.496 19.498v-7.5M4.5 12h1.121a1.875 1.875 0 1 1 0 3.75H4.5m2.996 3.748-2.25-3.75m11.25 3.75v-7.5M16.5 12h1.125a1.875 1.875 0 1 1 0 3.75H16.5m2.996 3.748-2.25-3.75M10.5 19.5v-6a1.5 1.5 0 1 1 3 0v6m-3.004-3.002h3"/><path d="M22.807 5.56a1.5 1.5 0 0 1 .44 1.059V21A2.25 2.25 0 0 1 21 23.248H3A2.249 2.249 0 0 1 .746 21V3A2.25 2.25 0 0 1 3 .748h14.375a1.5 1.5 0 0 1 1.061.439l4.371 4.372Z"/><path d="M17.246.748v4.5a1.5 1.5 0 0 0 1.5 1.5h4.5"/></g><defs><clipPath id="a"><path fill="#fff" d="M0 0h24v24H0z"/></clipPath></defs></svg>