<svg width="24" height="24" fill="none" xmlns="http://www.w3.org/2000/svg"><g clip-path="url(#a)" stroke="#225CF3" stroke-width="1.5" stroke-linecap="round" stroke-linejoin="round"><path d="M4.499 19.498v-7.5M4.5 12h.75a2.25 2.25 0 0 1 0 4.5H4.5m6 3a3 3 0 0 0 3-3V15a3 3 0 0 0-3-3v7.5Zm6 0v-6A1.5 1.5 0 0 1 18 12h1.5m-3.001 4.498h2.25"/><path d="M22.809 5.56a1.5 1.5 0 0 1 .44 1.059V21A2.25 2.25 0 0 1 21 23.248H3A2.25 2.25 0 0 1 .749 21V3A2.25 2.25 0 0 1 3 .748h14.377a1.5 1.5 0 0 1 1.061.439l4.371 4.372Z"/><path d="M17.249.748v4.5a1.5 1.5 0 0 0 1.5 1.5h4.5"/></g><defs><clipPath id="a"><path fill="#fff" d="M0 0h24v24H0z"/></clipPath></defs></svg>