<svg width="24" height="24" fill="none" xmlns="http://www.w3.org/2000/svg"><g clip-path="url(#a)" stroke="#225CF3" stroke-width="1.5" stroke-linecap="round" stroke-linejoin="round"><path d="M4.5 19.5a3 3 0 0 0 3-3V15a3 3 0 0 0-3-3v7.5ZM12 12a1.5 1.5 0 0 0-1.5 1.5V18a1.5 1.5 0 1 0 3 0v-4.5A1.5 1.5 0 0 0 12 12Zm7.5 0a3 3 0 0 0-3 3v1.5a3 3 0 0 0 3 3"/><path d="M22.81 5.56a1.5 1.5 0 0 1 .439 1.059V21A2.25 2.25 0 0 1 21 23.248H3A2.25 2.25 0 0 1 .749 21V3A2.25 2.25 0 0 1 3 .748h14.378a1.5 1.5 0 0 1 1.061.439L22.81 5.56Z"/><path d="M17.249.748v4.5a1.5 1.5 0 0 0 1.5 1.5h4.5"/></g><defs><clipPath id="a"><path fill="#fff" d="M0 0h24v24H0z"/></clipPath></defs></svg>