<svg width="24" height="24" fill="none" xmlns="http://www.w3.org/2000/svg"><g clip-path="url(#a)" stroke="#225CF3" stroke-width="1.5" stroke-linecap="round" stroke-linejoin="round"><path d="m4.503 11.998 3 7.5m0-7.5-3 7.5M10.5 12v6a1.5 1.5 0 0 0 1.5 1.5h1.5m6-7.5H18a1.5 1.5 0 0 0-1.5 1.5c0 2.25 3 2.25 3 4.5a1.5 1.5 0 0 1-1.5 1.5h-1.5"/><path d="M22.814 5.56a1.5 1.5 0 0 1 .439 1.059V21A2.249 2.249 0 0 1 21 23.248H3A2.25 2.25 0 0 1 .753 21V3A2.25 2.25 0 0 1 3 .748h14.382a1.5 1.5 0 0 1 1.06.439l4.372 4.372Z"/><path d="M17.253.748v4.5a1.5 1.5 0 0 0 1.5 1.5h4.5"/></g><defs><clipPath id="a"><path fill="#fff" d="M0 0h24v24H0z"/></clipPath></defs></svg>