<svg width="24" height="24" fill="none" xmlns="http://www.w3.org/2000/svg"><g clip-path="url(#a)" stroke="#225CF3" stroke-width="1.5" stroke-linecap="round" stroke-linejoin="round"><path d="M17.998 19.498v-7.5m-1.5 0h3m-13.5 7.5v-7.5m-1.5 0h3m3 0 3 7.5m0-7.5-3 7.5M22.809 5.56a1.5 1.5 0 0 1 .439 1.059V21A2.25 2.25 0 0 1 21 23.248H3A2.248 2.248 0 0 1 .748 21V3A2.25 2.25 0 0 1 3 .748h14.377a1.5 1.5 0 0 1 1.061.439l4.371 4.372Z"/><path d="M17.248.748v4.5a1.5 1.5 0 0 0 1.5 1.5h4.5"/></g><defs><clipPath id="a"><path fill="#fff" d="M0 0h24v24H0z"/></clipPath></defs></svg>