<svg width="24" height="24" viewBox="0 0 24 24" fill="none" xmlns="http://www.w3.org/2000/svg">
<path d="M18.0189 12.0188L19.7489 10.2888C20.1553 9.89456 20.4792 9.42344 20.7018 8.90284C20.9244 8.38225 21.0412 7.82259 21.0455 7.25642C21.0498 6.69025 20.9414 6.12889 20.7267 5.60498C20.512 5.08108 20.1953 4.60511 19.795 4.20476C19.3946 3.8044 18.9186 3.48767 18.3947 3.27298C17.8708 3.05829 17.3095 2.94994 16.7433 2.95422C16.1771 2.95851 15.6175 3.07535 15.0969 3.29794C14.5763 3.52054 14.1051 3.84444 13.7109 4.25081L10.0109 7.95081C9.61426 8.34717 9.29961 8.8178 9.08494 9.33582C8.87026 9.85383 8.75977 10.4091 8.75977 10.9698C8.75977 11.5305 8.87026 12.0858 9.08494 12.6038C9.29961 13.1218 9.61426 13.5924 10.0109 13.9888L9.9999 13.9998C10.3445 14.3379 10.7447 14.6142 11.1829 14.8168" stroke="#225CF3" stroke-width="1.5" stroke-linecap="round" stroke-linejoin="round"/>
<path d="M12.8062 9.19287C13.2444 9.3958 13.6446 9.67249 13.9892 10.0109C14.3858 10.4072 14.7005 10.8779 14.9152 11.3959C15.1298 11.9139 15.2403 12.4691 15.2403 13.0299C15.2403 13.5906 15.1298 14.1458 14.9152 14.6639C14.7005 15.1819 14.3858 15.6525 13.9892 16.0489L10.2892 19.7489C9.48442 20.5296 8.40483 20.9625 7.28358 20.954C6.16233 20.9456 5.08942 20.4964 4.29655 19.7035C3.50369 18.9106 3.05451 17.8377 3.04602 16.7165C3.03753 15.5952 3.47042 14.5156 4.25119 13.7109L5.98119 11.9809" stroke="#225CF3" stroke-width="1.5" stroke-linecap="round" stroke-linejoin="round"/>
</svg>
