<svg width="24" height="24" viewBox="0 0 24 24" fill="none" xmlns="http://www.w3.org/2000/svg">
<g clip-path="url(#clip0_354_1189)">
<path d="M4.5 19.5C5.29565 19.5 6.05871 19.1839 6.62132 18.6213C7.18393 18.0587 7.5 17.2956 7.5 16.5V15C7.5 14.2044 7.18393 13.4413 6.62132 12.8787C6.05871 12.3161 5.29565 12 4.5 12V19.5Z" stroke="#225CF3" stroke-width="1.5" stroke-linecap="round" stroke-linejoin="round"/>
<path d="M12 12C11.6022 12 11.2206 12.158 10.9393 12.4393C10.658 12.7206 10.5 13.1022 10.5 13.5V18C10.5 18.3978 10.658 18.7794 10.9393 19.0607C11.2206 19.342 11.6022 19.5 12 19.5C12.3978 19.5 12.7794 19.342 13.0607 19.0607C13.342 18.7794 13.5 18.3978 13.5 18V13.5C13.5 13.1022 13.342 12.7206 13.0607 12.4393C12.7794 12.158 12.3978 12 12 12Z" stroke="#225CF3" stroke-width="1.5" stroke-linecap="round" stroke-linejoin="round"/>
<path d="M19.5 12C18.7044 12 17.9413 12.3161 17.3787 12.8787C16.8161 13.4413 16.5 14.2044 16.5 15V16.5C16.5 17.2956 16.8161 18.0587 17.3787 18.6213C17.9413 19.1839 18.7044 19.5 19.5 19.5" stroke="#225CF3" stroke-width="1.5" stroke-linecap="round" stroke-linejoin="round"/>
<path d="M22.81 5.55905C23.091 5.84025 23.2489 6.2215 23.249 6.61905V21C23.2485 21.5963 23.0113 22.1679 22.5897 22.5894C22.168 23.0109 21.5962 23.2478 21 23.248H3.00002C2.40346 23.2483 1.83121 23.0117 1.40909 22.5901C0.986979 22.1685 0.749555 21.5966 0.749024 21V3.00005C0.748761 2.70432 0.806799 2.41144 0.919816 2.13816C1.03283 1.86489 1.19862 1.61657 1.40768 1.40741C1.61674 1.19825 1.86499 1.03236 2.13822 0.919222C2.41145 0.806083 2.7043 0.747916 3.00002 0.748047H17.378C17.575 0.747958 17.7701 0.786681 17.9522 0.862006C18.1342 0.93733 18.2997 1.04778 18.439 1.18705L22.81 5.55905Z" stroke="#225CF3" stroke-width="1.5" stroke-linecap="round" stroke-linejoin="round"/>
<path d="M17.249 0.748047V5.24805C17.249 5.64587 17.4071 6.0274 17.6884 6.30871C17.9697 6.59001 18.3512 6.74805 18.749 6.74805H23.249" stroke="#225CF3" stroke-width="1.5" stroke-linecap="round" stroke-linejoin="round"/>
</g>
<defs>
<clipPath id="clip0_354_1189">
<rect width="24" height="24" fill="white"/>
</clipPath>
</defs>
</svg>
