<svg width="24" height="24" viewBox="0 0 24 24" fill="none" xmlns="http://www.w3.org/2000/svg">
<g clip-path="url(#clip0_355_1222)">
<path d="M4.49902 19.498V11.998" stroke="#225CF3" stroke-width="1.5" stroke-linecap="round" stroke-linejoin="round"/>
<path d="M4.5 12H5.25C5.84674 12 6.41903 12.2371 6.84099 12.659C7.26295 13.081 7.5 13.6533 7.5 14.25C7.5 14.8467 7.26295 15.419 6.84099 15.841C6.41903 16.2629 5.84674 16.5 5.25 16.5H4.5" stroke="#225CF3" stroke-width="1.5" stroke-linecap="round" stroke-linejoin="round"/>
<path d="M10.5 19.5C11.2956 19.5 12.0587 19.1839 12.6213 18.6213C13.1839 18.0587 13.5 17.2956 13.5 16.5V15C13.5 14.2044 13.1839 13.4413 12.6213 12.8787C12.0587 12.3161 11.2956 12 10.5 12V19.5Z" stroke="#225CF3" stroke-width="1.5" stroke-linecap="round" stroke-linejoin="round"/>
<path d="M16.5 19.5V13.5C16.5 13.1022 16.658 12.7206 16.9393 12.4393C17.2206 12.158 17.6022 12 18 12H19.5" stroke="#225CF3" stroke-width="1.5" stroke-linecap="round" stroke-linejoin="round"/>
<path d="M16.499 16.498H18.749" stroke="#225CF3" stroke-width="1.5" stroke-linecap="round" stroke-linejoin="round"/>
<path d="M22.809 5.55905C23.0904 5.84008 23.2487 6.22136 23.249 6.61905V21C23.2485 21.5963 23.0113 22.1679 22.5897 22.5894C22.168 23.0109 21.5962 23.2478 21 23.248H3.00002C2.40346 23.2483 1.83121 23.0117 1.40909 22.5901C0.986979 22.1685 0.749555 21.5966 0.749024 21V3.00005C0.748761 2.70432 0.806799 2.41144 0.919816 2.13816C1.03283 1.86489 1.19862 1.61657 1.40768 1.40741C1.61674 1.19825 1.86499 1.03236 2.13822 0.919222C2.41145 0.806083 2.7043 0.747916 3.00002 0.748047H17.377C17.574 0.747958 17.7691 0.786681 17.9512 0.862006C18.1332 0.93733 18.2987 1.04778 18.438 1.18705L22.809 5.55905Z" stroke="#225CF3" stroke-width="1.5" stroke-linecap="round" stroke-linejoin="round"/>
<path d="M17.249 0.748047V5.24805C17.249 5.64587 17.4071 6.0274 17.6884 6.30871C17.9697 6.59001 18.3512 6.74805 18.749 6.74805H23.249" stroke="#225CF3" stroke-width="1.5" stroke-linecap="round" stroke-linejoin="round"/>
</g>
<defs>
<clipPath id="clip0_355_1222">
<rect width="24" height="24" fill="white"/>
</clipPath>
</defs>
</svg>
